<svg xmlns="http://www.w3.org/2000/svg" xmlns:xlink="http://www.w3.org/1999/xlink" version="1.1" data-diagram-type="DESCRIPTION" style="width:1375px;height:1593px;background:#FFFFFF;" width="1375px" height="1593px" viewBox="0 0 1375 1593" zoomAndPan="magnify" preserveAspectRatio="none" contentStyleType="text/css"><?plantuml 1.2026.7beta8?><defs/><g font-family="sans-serif" lengthAdjust="spacing"><g class="title" data-source-line="2"><text x="310.998" y="35.421" fill="#000" font-size="22" textLength="751.019" font-weight="700" font-family="'Segoe UI'">Diagramme de déploiement — PFE Legislation Service (RAG)</text></g><!--cluster CLIENT--><g class="cluster" data-qualified-name="CLIENT" id="ent0001" data-source-line="40"><polygon points="161,67.609,171,57.609,738,57.609,738,172.549,728,182.549,161,182.549,161,67.609" fill="#EAF1F8" style="stroke:#2C5F8E;stroke-width:1;stroke-linejoin:miter;stroke-miterlimit:10;"/><line x1="728" y1="67.609" x2="738" y2="57.609" style="stroke:#2C5F8E;stroke-width:1;"/><line x1="161" y1="67.609" x2="728" y2="67.609" style="stroke:#2C5F8E;stroke-width:1;"/><line x1="728" y1="67.609" x2="728" y2="182.549" style="stroke:#2C5F8E;stroke-width:1;"/><text x="418.45" y="81.748" fill="#16202C" font-size="12" textLength="54.1" font-style="italic" font-family="'Segoe UI'">«device»</text><text x="405.504" y="95.717" fill="#16202C" font-size="12" textLength="79.992" font-weight="700" font-family="'Segoe UI'">Poste client</text></g><!--cluster RENDER--><g class="cluster" data-qualified-name="RENDER" id="ent0005" data-source-line="49"><polygon points="21,253.549,31,243.549,761,243.549,761,1146.579,751,1156.579,21,1156.579,21,253.549" fill="#EAF1F8" style="stroke:#2C5F8E;stroke-width:1;stroke-linejoin:miter;stroke-miterlimit:10;"/><line x1="751" y1="253.549" x2="761" y2="243.549" style="stroke:#2C5F8E;stroke-width:1;"/><line x1="21" y1="253.549" x2="751" y2="253.549" style="stroke:#2C5F8E;stroke-width:1;"/><line x1="751" y1="253.549" x2="751" y2="1156.579" style="stroke:#2C5F8E;stroke-width:1;"/><text x="309.879" y="267.688" fill="#16202C" font-size="12" textLength="154.242" font-style="italic" font-family="'Segoe UI'">«execution environment»</text><text x="310.523" y="281.657" fill="#16202C" font-size="12" textLength="152.953" font-weight="700" font-family="'Segoe UI'">Render — Web Service</text></g><!--cluster DOCKER--><g class="cluster" data-qualified-name="RENDER.DOCKER" id="ent0006" data-source-line="51"><polygon points="45,312.549,55,302.549,737,302.549,737,1122.579,727,1132.579,45,1132.579,45,312.549" fill="#EAF1F8" style="stroke:#2C5F8E;stroke-width:1;stroke-linejoin:miter;stroke-miterlimit:10;"/><line x1="727" y1="312.549" x2="737" y2="302.549" style="stroke:#2C5F8E;stroke-width:1;"/><line x1="45" y1="312.549" x2="727" y2="312.549" style="stroke:#2C5F8E;stroke-width:1;"/><line x1="727" y1="312.549" x2="727" y2="1132.579" style="stroke:#2C5F8E;stroke-width:1;"/><text x="351.229" y="326.688" fill="#16202C" font-size="12" textLength="71.543" font-style="italic" font-family="'Segoe UI'">«container»</text><text x="325.928" y="340.657" fill="#16202C" font-size="12" textLength="122.145" font-weight="700" font-family="'Segoe UI'">Conteneur Docker</text><text x="225.744" y="354.626" fill="#16202C" font-size="12" textLength="322.512" font-weight="700" font-family="'Segoe UI'">ghcr.io/astral-sh/uv:python3.14-bookworm-slim</text><text x="341.569" y="368.594" fill="#16202C" font-size="12" textLength="90.861" font-weight="700" font-family="'Segoe UI'">EXPOSE 8000</text></g><!--cluster QDRANT--><g class="cluster" data-qualified-name="QDRANT" id="ent0023" data-source-line="78"><path d="M242,1241.579 C242,1231.579 401,1231.579 401,1231.579 C401,1231.579 560,1231.579 560,1241.579 L560,1419.359 C560,1429.359 401,1429.359 401,1429.359 C401,1429.359 242,1429.359 242,1419.359 L242,1241.579" style="stroke:#2E7D5B;stroke-width:1;" fill="#E6F2EC"/><path d="M242,1241.579 C242,1251.579 401,1251.579 401,1251.579 C401,1251.579 560,1251.579 560,1241.579" style="stroke:#2E7D5B;stroke-width:1;" fill="none"/><text x="332.712" y="1264.718" fill="#16202C" font-size="12" textLength="136.576" font-style="italic" font-family="'Segoe UI'">«managed data store»</text><text x="356.22" y="1278.687" fill="#16202C" font-size="12" textLength="89.561" font-weight="700" font-family="'Segoe UI'">Qdrant Cloud</text></g><!--cluster OPENAI--><g class="cluster" data-qualified-name="OPENAI" id="ent0025" data-source-line="85"><path d="M802.864,1014.568 C808.417,1007.3 813.536,1008.421 818.702,1015.01 C821.812,1006.547 827.694,1006.255 833.728,1011.895 C838.545,1002.478 844.008,1002.977 850.292,1010.457 C853.418,1004.017 859.373,1004.142 863.471,1009.359 C868.749,1001.779 874.835,1001.992 880.391,1009.037 C883.91,1000.179 890.176,999.432 895.667,1007.227 C901.735,998.389 906.828,999.979 912.579,1007.554 C916.832,999.964 922.627,1001.104 926.949,1007.482 C932.985,1000.74 938.245,1000.925 943.578,1008.31 C949.635,1000.333 956.969,1001.894 961.681,1009.838 C966.947,1004.044 971.093,1004.035 975.139,1011.115 C981.449,1003.674 988.13,1002.705 993.365,1012.268 C998.05,1007.37 1005.262,1006.899 1007.176,1015.174 C1017.681,1005.432 1023.724,1009.645 1029,1020.669 C1030.245,1020.505 1030.807,1020.955 1030.723,1022.245 C1038.683,1025.742 1038.836,1034.321 1032.435,1039.263 C1039.581,1043.107 1042.741,1048.303 1035.218,1054.779 C1043.8,1058.213 1043.541,1065.621 1036.375,1070.235 C1042.644,1077.105 1043.282,1083.942 1033.148,1087.8 C1039.204,1092.195 1040.05,1099.223 1032.111,1102.639 C1040.602,1113.456 1036.627,1124.416 1022,1124.579 C1023.592,1124.267 1024.508,1125.495 1024.026,1126.953 C1019.153,1134.4 1013.312,1136.648 1007.403,1128.026 C1004.5,1137.188 997.353,1137.108 991.816,1130.654 C986.726,1137.858 982.001,1137.829 977.186,1130.379 C973.922,1141.517 966.635,1142.1 959.099,1134.503 C954.36,1142.074 948.378,1143.139 943.074,1135.083 C938.871,1142.274 934.069,1141.463 928.921,1136.153 C925.625,1143.818 918.43,1147.517 912.172,1139.272 C906.203,1143.794 900.738,1141.938 898.263,1135.024 C893.729,1144.408 884.657,1144.967 879.35,1135.812 C873.153,1141.747 868.88,1141.02 865.548,1132.983 C860.872,1140.367 852.209,1140.857 847.916,1132.553 C842.592,1137.544 838.033,1136.307 834.76,1130.136 C829.534,1138.372 820.397,1137.878 815.934,1129.282 C804.249,1135.105 794.817,1131.095 793,1117.579 C793.192,1117.502 793.329,1117.584 793.297,1117.804 C785.057,1113.445 785.838,1107.566 792.678,1102.593 C784.367,1098.384 784.029,1092.635 791.855,1087.543 C783.476,1082.768 782.668,1074.378 792.128,1069.88 C785.762,1065.852 784.967,1059.409 792.647,1055.902 C784.36,1048.7 785.201,1042.778 794.605,1037.454 C786.507,1027.066 788.324,1019.572 800,1013.669 C801.422,1012.514 802.332,1012.888 802.864,1014.568" style="stroke:#A9642A;stroke-width:1;" fill="#F8EFE3"/><text x="855.359" y="1029.808" fill="#16202C" font-size="12" textLength="111.281" font-style="italic" font-family="'Segoe UI'">«external service»</text><text x="886.388" y="1043.777" fill="#16202C" font-size="12" textLength="49.225" font-weight="700" font-family="'Segoe UI'">OpenAI</text></g><!--cluster COHERE--><g class="cluster" data-qualified-name="COHERE" id="ent0027" data-source-line="89"><path d="M1079.111,1022.09 C1084.712,1014.509 1092.253,1014.5 1096.872,1023.164 C1100.287,1014.323 1105.674,1012.7 1112.433,1019.925 C1118.202,1010.234 1127.861,1011.768 1132.159,1021.424 C1136.935,1013.47 1142.709,1010.599 1149.8,1018.914 C1156.369,1009.574 1163.146,1008.605 1169.401,1019.222 C1173.273,1010.097 1181.212,1007.739 1187.571,1016.728 C1191.28,1009.414 1199.153,1007.753 1203.902,1015.61 C1210.122,1007.127 1216.569,1005.974 1222.323,1016.072 C1228.746,1007.152 1235.981,1008.477 1240.483,1017.967 C1246.868,1008.459 1254.547,1011.395 1259.025,1019.927 C1265.12,1011.382 1270.808,1011.713 1275.849,1020.926 C1281.858,1011.809 1291.728,1010.171 1296.922,1021.755 C1301.35,1015.613 1308.823,1015.008 1312.044,1023.042 C1321.94,1012.256 1331.528,1014.531 1337,1027.659 C1338.303,1026.456 1339.231,1026.688 1339.977,1028.258 C1350.705,1033.112 1352.864,1040.669 1343.145,1048.693 C1355.29,1052.424 1360.015,1058.995 1351.622,1070.654 C1358.289,1079.828 1355.555,1089.664 1343.887,1092.279 C1351.798,1108.12 1347.624,1115.759 1330,1117.589 C1330.843,1117.819 1331.007,1118.406 1330.576,1119.117 C1325.129,1129.151 1318.715,1129.595 1312.258,1120.063 C1308.719,1128.394 1301.601,1127.783 1296.807,1121.378 C1293.392,1131.377 1284.027,1134.237 1276.857,1125.343 C1272.835,1133.153 1265.977,1135.228 1259.765,1127.799 C1254.562,1135.844 1246.37,1137.084 1241.715,1127.247 C1236.208,1136.156 1230.395,1137.06 1223.857,1128.288 C1220.7,1139.293 1211.696,1141.133 1204.664,1131.976 C1198.211,1138.045 1189.941,1137.497 1187.152,1127.885 C1180.999,1138.556 1172.737,1138.046 1166.755,1127.719 C1162.778,1134.695 1155.162,1136.166 1151.162,1127.743 C1143.817,1137.972 1135.865,1137.381 1130.651,1125.745 C1125.755,1132.278 1118.841,1133.106 1115.244,1124.429 C1107.95,1133.428 1102.132,1132.061 1096.822,1122.464 C1081.122,1132.988 1073.228,1126.945 1069,1110.589 C1071.285,1109.915 1072.46,1110.849 1072.401,1113.213 C1060.307,1109.161 1057.101,1098.411 1068.407,1090.283 C1058.096,1084.819 1056.906,1075.588 1067.947,1069.648 C1059.043,1062.386 1060.777,1057.053 1070.032,1051.928 C1057.832,1038.77 1058.328,1028.116 1076,1020.659 C1077.599,1019.86 1078.72,1020.265 1079.111,1022.09" style="stroke:#A9642A;stroke-width:1;" fill="#F8EFE3"/><text x="1147.359" y="1036.798" fill="#16202C" font-size="12" textLength="111.281" font-style="italic" font-family="'Segoe UI'">«external service»</text><text x="1179.105" y="1050.767" fill="#16202C" font-size="12" textLength="47.789" font-weight="700" font-family="'Segoe UI'">Cohere</text></g><!--cluster ANTHROPIC--><g class="cluster" data-qualified-name="ANTHROPIC" id="ent0029" data-source-line="93"><path d="M800.968,840.465 C806.568,832.415 811.592,831.652 817.74,839.9 C821.122,831.945 826.174,830.473 832.811,836.354 C838.996,828.667 844.981,830.855 849.569,838.141 C853.965,829.387 860.113,827.261 867.229,835.277 C872.115,827.331 877.53,827.648 882.156,835.523 C885.649,827.055 893.353,826.872 898.142,834.213 C903.832,825.72 911.081,824.782 916.689,834.297 C921.824,828.856 929.392,827.972 931.943,837.018 C936.54,830.528 942.982,830.249 947.61,836.98 C953.888,829.212 961.085,828.326 966.059,838.333 C970.885,831.803 976.553,833.173 979.823,839.943 C989.446,830.989 998.269,832.739 1003,845.229 C1004.245,844.948 1004.83,845.7 1004.468,846.863 C1015.309,853.156 1016.528,860.418 1005.573,867.859 C1014.457,873.24 1015.097,882.128 1004.958,886.895 C1017.64,892.532 1015.249,903.435 1006.142,910.181 C1014.741,923.427 1011.797,931.825 996,935.169 C996.864,935.167 997.073,935.556 996.702,936.312 C994.174,943.947 987.774,945.89 982.484,939.018 C976.55,946.275 968.463,948.163 963.892,937.595 C960.38,945.292 953.858,946.983 948.789,939.105 C944.293,948.173 938.395,950.408 930.905,942.207 C926.079,950.382 919.822,949.217 914.541,942.716 C910.401,951.445 903.568,951.269 898.587,943.53 C894.61,949.724 887.462,949.988 883.702,943.28 C877.66,950.959 870.796,947.833 868.063,939.954 C863.911,946.653 855.993,947.764 851.72,940.091 C846.147,949.44 838.411,948.392 833.139,939.78 C827.175,947.481 821.773,946.449 817.524,938.111 C804,947.583 796.8,942.685 793,928.169 C794.149,928.02 795.04,928.712 794.532,929.971 C786.315,927.934 785.998,921.017 790.739,915.567 C784.65,913.417 782.986,907.706 787.729,902.968 C780.07,900.389 778.819,893.922 785.314,888.911 C778.786,883.947 781.33,876.975 788.009,874.476 C781.494,868.852 783.216,864.146 790.291,860.787 C781.17,849.124 784.823,839.434 800,838.229 C801.409,838.34 801.743,839.408 800.968,840.465" style="stroke:#A9642A;stroke-width:1;" fill="#F8EFE3"/><text x="842.359" y="854.368" fill="#16202C" font-size="12" textLength="111.281" font-style="italic" font-family="'Segoe UI'">«external service»</text><text x="864.956" y="868.337" fill="#16202C" font-size="12" textLength="66.088" font-weight="700" font-family="'Segoe UI'">Anthropic</text></g><!--entity FRONT--><g class="entity" data-qualified-name="CLIENT.FRONT" id="ent0002" data-source-line="41"><rect x="176.7" y="115.589" width="166.609" height="43.969" fill="#FFF" style="stroke:#7A8896;stroke-width:1;" rx="2" ry="2"/><rect x="323.309" y="120.589" width="15" height="10" fill="#FFF" style="stroke:#7A8896;stroke-width:1;"/><rect x="321.309" y="122.589" width="4" height="2" fill="#FFF" style="stroke:#7A8896;stroke-width:1;"/><rect x="321.309" y="126.589" width="4" height="2" fill="#FFF" style="stroke:#7A8896;stroke-width:1;"/><text x="191.7" y="146.728" fill="#16202C" font-size="12" textLength="126.609" font-family="'Segoe UI'">Application front-end</text></g><!--entity VIEWER--><g class="entity" data-qualified-name="CLIENT.VIEWER" id="ent0003" data-source-line="42"><rect x="378.47" y="108.609" width="169.059" height="57.938" fill="#FFF" style="stroke:#7A8896;stroke-width:1;" rx="2" ry="2"/><rect x="527.529" y="113.609" width="15" height="10" fill="#FFF" style="stroke:#7A8896;stroke-width:1;"/><rect x="525.529" y="115.609" width="4" height="2" fill="#FFF" style="stroke:#7A8896;stroke-width:1;"/><rect x="525.529" y="119.609" width="4" height="2" fill="#FFF" style="stroke:#7A8896;stroke-width:1;"/><text x="393.47" y="139.748" fill="#16202C" font-size="12" textLength="129.059" font-family="'Segoe UI'">Interface de test RAG</text><text x="393.47" y="153.717" fill="#16202C" font-size="12" textLength="74.355" font-family="'Segoe UI'">(navigateur)</text></g><!--entity SCALAR--><g class="entity" data-qualified-name="CLIENT.SCALAR" id="ent0004" data-source-line="43"><rect x="582.05" y="108.609" width="139.896" height="57.938" fill="#FFF" style="stroke:#7A8896;stroke-width:1;" rx="2" ry="2"/><rect x="701.946" y="113.609" width="15" height="10" fill="#FFF" style="stroke:#7A8896;stroke-width:1;"/><rect x="699.946" y="115.609" width="4" height="2" fill="#FFF" style="stroke:#7A8896;stroke-width:1;"/><rect x="699.946" y="119.609" width="4" height="2" fill="#FFF" style="stroke:#7A8896;stroke-width:1;"/><text x="597.05" y="139.748" fill="#16202C" font-size="12" textLength="99.896" font-family="'Segoe UI'">Scalar / OpenAPI</text><text x="597.05" y="153.717" fill="#16202C" font-size="12" textLength="39.867" font-family="'Segoe UI'">/scalar</text></g><!--entity APP--><g class="entity" data-qualified-name="RENDER.DOCKER.APP" id="ent0007" data-source-line="53"><rect x="338.24" y="381.549" width="241.518" height="78.875" fill="#FDFDFE" style="stroke:#7A8896;stroke-width:1;" rx="2" ry="2"/><polygon points="562.758,386.549,562.758,400.549,574.758,400.549,574.758,392.549,568.758,386.549,562.758,386.549" fill="#FDFDFE" style="stroke:#7A8896;stroke-width:1;stroke-linejoin:miter;stroke-miterlimit:10;"/><line x1="568.758" y1="386.549" x2="568.758" y2="392.549" style="stroke:#7A8896;stroke-width:1;"/><line x1="574.758" y1="392.549" x2="568.758" y2="392.549" style="stroke:#7A8896;stroke-width:1;"/><text x="348.24" y="405.688" fill="#16202C" font-size="12" textLength="51.721" font-weight="700" font-family="'Segoe UI'">FastAPI</text><text x="403.775" y="405.688" fill="#16202C" font-size="12" textLength="64.33" font-family="'Segoe UI'">— main.py</text><text x="348.24" y="419.657" fill="#16202C" font-size="12" textLength="64.799" font-family="'Segoe UI'">fastapi run</text><text x="416.853" y="419.657" fill="#16202C" font-size="12" textLength="71.701" text-decoration="line-through" font-family="'Segoe UI'">host 0.0.0.0</text><text x="492.369" y="419.657" fill="#16202C" font-size="12" textLength="58.951" font-family="'Segoe UI'">port 8000</text><text x="348.24" y="433.626" fill="#16202C" font-size="12" textLength="211.518" font-family="'Segoe UI'">CORS · handler d'exceptions global</text><text x="348.24" y="447.594" fill="#16202C" font-size="12" textLength="178.887" font-family="'Segoe UI'">lifespan → ensure_collection()</text></g><!--entity CHATR--><g class="entity" data-qualified-name="RENDER.DOCKER.CHATR" id="ent0008" data-source-line="55"><rect x="480.62" y="521.419" width="146.764" height="57.938" fill="#FFF" style="stroke:#7A8896;stroke-width:1;" rx="2" ry="2"/><rect x="607.384" y="526.419" width="15" height="10" fill="#FFF" style="stroke:#7A8896;stroke-width:1;"/><rect x="605.384" y="528.419" width="4" height="2" fill="#FFF" style="stroke:#7A8896;stroke-width:1;"/><rect x="605.384" y="532.419" width="4" height="2" fill="#FFF" style="stroke:#7A8896;stroke-width:1;"/><text x="495.62" y="552.558" fill="#16202C" font-size="12" textLength="70.482" font-family="'Segoe UI'">chat_routes</text><text x="495.62" y="566.527" fill="#16202C" font-size="12" textLength="106.764" font-family="'Segoe UI'">/api/v1/legislation</text></g><!--entity RAGR--><g class="entity" data-qualified-name="RENDER.DOCKER.RAGR" id="ent0009" data-source-line="56"><rect x="373.46" y="609.359" width="105.074" height="57.938" fill="#FFF" style="stroke:#7A8896;stroke-width:1;" rx="2" ry="2"/><rect x="458.534" y="614.359" width="15" height="10" fill="#FFF" style="stroke:#7A8896;stroke-width:1;"/><rect x="456.534" y="616.359" width="4" height="2" fill="#FFF" style="stroke:#7A8896;stroke-width:1;"/><rect x="456.534" y="620.359" width="4" height="2" fill="#FFF" style="stroke:#7A8896;stroke-width:1;"/><text x="388.46" y="640.498" fill="#16202C" font-size="12" textLength="64.125" font-family="'Segoe UI'">rag_routes</text><text x="388.46" y="654.467" fill="#16202C" font-size="12" textLength="65.074" font-family="'Segoe UI'">/api/v1/rag</text></g><!--entity CHATS--><g class="entity" data-qualified-name="RENDER.DOCKER.CHATS" id="ent0010" data-source-line="57"><rect x="454.69" y="697.299" width="266.611" height="57.938" fill="#FFF" style="stroke:#7A8896;stroke-width:1;" rx="2" ry="2"/><rect x="701.301" y="702.299" width="15" height="10" fill="#FFF" style="stroke:#7A8896;stroke-width:1;"/><rect x="699.301" y="704.299" width="4" height="2" fill="#FFF" style="stroke:#7A8896;stroke-width:1;"/><rect x="699.301" y="708.299" width="4" height="2" fill="#FFF" style="stroke:#7A8896;stroke-width:1;"/><text x="469.69" y="728.438" fill="#16202C" font-size="12" textLength="72.393" font-family="'Segoe UI'">ChatService</text><text x="469.69" y="742.407" fill="#16202C" font-size="12" textLength="226.611" font-family="'Segoe UI'">prompt augmenté + sortie structurée</text></g><!--entity RAGS--><g class="entity" data-qualified-name="RENDER.DOCKER.RAGS" id="ent0011" data-source-line="58"><rect x="469.93" y="872.729" width="236.131" height="57.938" fill="#FFF" style="stroke:#7A8896;stroke-width:1;" rx="2" ry="2"/><rect x="686.061" y="877.729" width="15" height="10" fill="#FFF" style="stroke:#7A8896;stroke-width:1;"/><rect x="684.061" y="879.729" width="4" height="2" fill="#FFF" style="stroke:#7A8896;stroke-width:1;"/><rect x="684.061" y="883.729" width="4" height="2" fill="#FFF" style="stroke:#7A8896;stroke-width:1;"/><text x="484.93" y="903.868" fill="#16202C" font-size="12" textLength="67.658" font-family="'Segoe UI'">RagService</text><text x="484.93" y="917.837" fill="#16202C" font-size="12" textLength="196.131" font-family="'Segoe UI'">chunking · embedding · retrieval</text></g><!--entity VS--><g class="entity" data-qualified-name="RENDER.DOCKER.VS" id="ent0012" data-source-line="59"><rect x="341.78" y="1055.159" width="118.434" height="57.938" fill="#FFF" style="stroke:#7A8896;stroke-width:1;" rx="2" ry="2"/><rect x="440.214" y="1060.159" width="15" height="10" fill="#FFF" style="stroke:#7A8896;stroke-width:1;"/><rect x="438.214" y="1062.159" width="4" height="2" fill="#FFF" style="stroke:#7A8896;stroke-width:1;"/><rect x="438.214" y="1066.159" width="4" height="2" fill="#FFF" style="stroke:#7A8896;stroke-width:1;"/><text x="356.78" y="1086.298" fill="#16202C" font-size="12" textLength="71.15" font-family="'Segoe UI'">VectorStore</text><text x="356.78" y="1100.267" fill="#16202C" font-size="12" textLength="78.434" font-family="'Segoe UI'">client Qdrant</text></g><!--entity BM25--><g class="entity" data-qualified-name="RENDER.DOCKER.BM25" id="ent0013" data-source-line="61"><rect x="494.88" y="1051.669" width="226.248" height="64.906" fill="#FDFDFE" style="stroke:#7A8896;stroke-width:1;" rx="2" ry="2"/><polygon points="704.128,1056.669,704.128,1070.669,716.128,1070.669,716.128,1062.669,710.128,1056.669,704.128,1056.669" fill="#FDFDFE" style="stroke:#7A8896;stroke-width:1;stroke-linejoin:miter;stroke-miterlimit:10;"/><line x1="710.128" y1="1056.669" x2="710.128" y2="1062.669" style="stroke:#7A8896;stroke-width:1;"/><line x1="716.128" y1="1062.669" x2="710.128" y2="1062.669" style="stroke:#7A8896;stroke-width:1;"/><text x="504.88" y="1075.808" fill="#16202C" font-size="12" textLength="184.811" font-weight="700" font-family="'Segoe UI'">FastEmbed — Qdrant/bm25</text><text x="504.88" y="1089.777" fill="#16202C" font-size="12" textLength="196.248" font-family="'Segoe UI'">vecteurs creux, in-process (CPU)</text><text x="504.88" y="1103.746" fill="#16202C" font-size="12" textLength="118.611" font-family="'Segoe UI'">aucun appel réseau</text></g><!--entity DOCS--><g class="entity" data-qualified-name="RENDER.DOCKER.DOCS" id="ent0014" data-source-line="62"><rect x="60.75" y="1051.669" width="246.498" height="64.906" fill="#FDFDFE" style="stroke:#7A8896;stroke-width:1;" rx="2" ry="2"/><polygon points="290.248,1056.669,290.248,1070.669,302.248,1070.669,302.248,1062.669,296.248,1056.669,290.248,1056.669" fill="#FDFDFE" style="stroke:#7A8896;stroke-width:1;stroke-linejoin:miter;stroke-miterlimit:10;"/><line x1="296.248" y1="1056.669" x2="296.248" y2="1062.669" style="stroke:#7A8896;stroke-width:1;"/><line x1="302.248" y1="1062.669" x2="296.248" y2="1062.669" style="stroke:#7A8896;stroke-width:1;"/><text x="70.75" y="1075.808" fill="#16202C" font-size="12" textLength="97.471" font-family="'Segoe UI'">app/documents/</text><text x="70.75" y="1089.777" fill="#16202C" font-size="12" textLength="216.498" font-family="'Segoe UI'">corpus Markdown livré dans l'image</text><text x="70.75" y="1103.746" fill="#16202C" font-size="12" textLength="191.613" font-family="'Segoe UI'">(système de fichiers éphémère)</text></g><!--entity COLL--><g class="entity" data-qualified-name="QDRANT.COLL" id="ent0024" data-source-line="79"><rect x="257.88" y="1292.579" width="286.23" height="120.781" fill="#FDFDFE" style="stroke:#7A8896;stroke-width:1;" rx="2" ry="2"/><polygon points="527.11,1297.579,527.11,1311.579,539.11,1311.579,539.11,1303.579,533.11,1297.579,527.11,1297.579" fill="#FDFDFE" style="stroke:#7A8896;stroke-width:1;stroke-linejoin:miter;stroke-miterlimit:10;"/><line x1="533.11" y1="1297.579" x2="533.11" y2="1303.579" style="stroke:#7A8896;stroke-width:1;"/><line x1="539.11" y1="1303.579" x2="533.11" y2="1303.579" style="stroke:#7A8896;stroke-width:1;"/><text x="267.88" y="1316.718" fill="#16202C" font-size="12" textLength="57.574" font-family="'Segoe UI'">collection</text><text x="267.88" y="1330.687" fill="#16202C" font-size="12" textLength="256.23" font-weight="700" font-family="'Segoe UI'">documents-legislatives-import-export</text><text x="267.88" y="1344.656" fill="#16202C" font-size="12" font-family="'Segoe UI'">—</text><text x="267.88" y="1358.624" fill="#16202C" font-size="12" textLength="161.338" font-family="'Segoe UI'">dense : 3072 dim · cosinus</text><text x="267.88" y="1372.593" fill="#16202C" font-size="12" textLength="194.742" font-family="'Segoe UI'">bm25  : creux · modificateur IDF</text><text x="267.88" y="1386.562" fill="#16202C" font-size="12" textLength="200.678" font-family="'Segoe UI'">index payload : source (keyword)</text><text x="267.88" y="1400.531" fill="#16202C" font-size="12" textLength="143.004" font-family="'Segoe UI'">fusion RRF côté serveur</text></g><!--entity EMB--><g class="entity" data-qualified-name="OPENAI.EMB" id="ent0026" data-source-line="86"><rect x="800.7" y="1051.669" width="220.594" height="64.906" fill="#FDFDFE" style="stroke:#7A8896;stroke-width:1;" rx="2" ry="2"/><polygon points="1004.294,1056.669,1004.294,1070.669,1016.294,1070.669,1016.294,1062.669,1010.294,1056.669,1004.294,1056.669" fill="#FDFDFE" style="stroke:#7A8896;stroke-width:1;stroke-linejoin:miter;stroke-miterlimit:10;"/><line x1="1010.294" y1="1056.669" x2="1010.294" y2="1062.669" style="stroke:#7A8896;stroke-width:1;"/><line x1="1016.294" y1="1062.669" x2="1010.294" y2="1062.669" style="stroke:#7A8896;stroke-width:1;"/><text x="810.7" y="1075.808" fill="#16202C" font-size="12" textLength="143.004" font-family="'Segoe UI'">text-embedding-3-large</text><text x="810.7" y="1089.777" fill="#16202C" font-size="12" textLength="190.594" font-family="'Segoe UI'">embeddings denses (3072 dim)</text><text x="810.7" y="1103.746" fill="#16202C" font-size="12" textLength="136.324" font-family="'Segoe UI'">lots de 32 à l'ingestion</text></g><!--entity RERANK--><g class="entity" data-qualified-name="COHERE.RERANK" id="ent0028" data-source-line="90"><rect x="1076.72" y="1058.659" width="252.557" height="50.938" fill="#FDFDFE" style="stroke:#7A8896;stroke-width:1;" rx="2" ry="2"/><polygon points="1312.277,1063.659,1312.277,1077.659,1324.277,1077.659,1324.277,1069.659,1318.277,1063.659,1312.277,1063.659" fill="#FDFDFE" style="stroke:#7A8896;stroke-width:1;stroke-linejoin:miter;stroke-miterlimit:10;"/><line x1="1318.277" y1="1063.659" x2="1318.277" y2="1069.659" style="stroke:#7A8896;stroke-width:1;"/><line x1="1324.277" y1="1069.659" x2="1318.277" y2="1069.659" style="stroke:#7A8896;stroke-width:1;"/><text x="1086.72" y="1082.798" fill="#16202C" font-size="12" textLength="96.539" font-family="'Segoe UI'">rerank-v4.0-fast</text><text x="1086.72" y="1096.767" fill="#16202C" font-size="12" textLength="222.557" font-family="'Segoe UI'">cross-encoder : 15 candidats → top 5</text></g><!--entity LLM--><g class="entity" data-qualified-name="ANTHROPIC.LLM" id="ent0030" data-source-line="94"><rect x="801.48" y="876.229" width="193.037" height="50.938" fill="#FDFDFE" style="stroke:#7A8896;stroke-width:1;" rx="2" ry="2"/><polygon points="977.517,881.229,977.517,895.229,989.517,895.229,989.517,887.229,983.517,881.229,977.517,881.229" fill="#FDFDFE" style="stroke:#7A8896;stroke-width:1;stroke-linejoin:miter;stroke-miterlimit:10;"/><line x1="983.517" y1="881.229" x2="983.517" y2="887.229" style="stroke:#7A8896;stroke-width:1;"/><line x1="989.517" y1="887.229" x2="983.517" y2="887.229" style="stroke:#7A8896;stroke-width:1;"/><text x="811.48" y="900.368" fill="#16202C" font-size="12" textLength="109.043" font-family="'Segoe UI'">claude-sonnet-4-6</text><text x="811.48" y="914.337" fill="#16202C" font-size="12" textLength="163.037" font-family="'Segoe UI'">génération + count_tokens</text></g><!--link APP to CHATR--><g class="link" data-entity-1="ent0007" data-entity-2="ent0008" id="lnk15" data-source-line="64" data-link-type="dependency"><path d="M488.02,460.899 C502.53,480.369 516.793,499.48 530.003,517.21" style="stroke:#44506080;stroke-width:1;" fill="none" id="APP-to-CHATR"/><polygon points="532.99,521.219,530.82,511.612,530.003,517.21,524.405,516.392,532.99,521.219" fill="#445060" fill-opacity="0.502" style="stroke:#44506080;stroke-width:1;stroke-linejoin:miter;stroke-miterlimit:10;"/></g><!--link APP to RAGR--><g class="link" data-entity-1="ent0007" data-entity-2="ent0009" id="lnk16" data-source-line="65" data-link-type="dependency"><path d="M453.1,460.479 C446.56,503.189 436.907,566.127 431.077,604.167" style="stroke:#44506080;stroke-width:1;" fill="none" id="APP-to-RAGR"/><polygon points="430.32,609.109,435.637,600.819,431.077,604.167,427.73,599.607,430.32,609.109" fill="#445060" fill-opacity="0.502" style="stroke:#44506080;stroke-width:1;stroke-linejoin:miter;stroke-miterlimit:10;"/></g><!--link CHATR to CHATS--><g class="link" data-entity-1="ent0008" data-entity-2="ent0010" id="lnk17" data-source-line="66" data-link-type="dependency"><path d="M559.54,579.709 C565.86,612.049 575.181,659.722 581.501,692.052" style="stroke:#44506080;stroke-width:1;" fill="none" id="CHATR-to-CHATS"/><polygon points="582.46,696.959,584.659,687.359,581.501,692.052,576.808,688.894,582.46,696.959" fill="#445060" fill-opacity="0.502" style="stroke:#44506080;stroke-width:1;stroke-linejoin:miter;stroke-miterlimit:10;"/></g><!--link RAGR to RAGS--><g class="link" data-entity-1="ent0009" data-entity-2="ent0011" id="lnk18" data-source-line="67" data-link-type="dependency"><path d="M423.36,667.469 C422.28,691.889 423.65,727.559 437,755.229 C460.88,804.739 505.078,843.516 540.638,869.406" style="stroke:#44506080;stroke-width:1;" fill="none" id="RAGR-to-RAGS"/><polygon points="544.68,872.349,539.758,863.818,540.638,869.406,535.05,870.286,544.68,872.349" fill="#445060" fill-opacity="0.502" style="stroke:#44506080;stroke-width:1;stroke-linejoin:miter;stroke-miterlimit:10;"/></g><!--link CHATS to RAGS--><g class="link" data-entity-1="ent0010" data-entity-2="ent0011" id="lnk19" data-source-line="68" data-link-type="dependency"><path d="M588,755.519 C588,787.769 588,835.219 588,867.459" style="stroke:#44506080;stroke-width:1;" fill="none" id="CHATS-to-RAGS"/><polygon points="588,872.459,592,863.459,588,867.459,584,863.459,588,872.459" fill="#445060" fill-opacity="0.502" style="stroke:#44506080;stroke-width:1;stroke-linejoin:miter;stroke-miterlimit:10;"/></g><!--link RAGS to VS--><g class="link" data-entity-1="ent0011" data-entity-2="ent0012" id="lnk20" data-source-line="69" data-link-type="dependency"><path d="M552.43,931.049 C530.1,949.339 501.08,974.049 477,997.669 C458.43,1015.889 442.216,1034.037 427.626,1051.127" style="stroke:#44506080;stroke-width:1;" fill="none" id="RAGS-to-VS"/><polygon points="424.38,1054.929,433.266,1050.682,427.626,1051.127,427.181,1045.487,424.38,1054.929" fill="#445060" fill-opacity="0.502" style="stroke:#44506080;stroke-width:1;stroke-linejoin:miter;stroke-miterlimit:10;"/></g><!--link RAGS to BM25--><g class="link" data-entity-1="ent0011" data-entity-2="ent0013" id="lnk21" data-source-line="70" data-link-type="dependency"><path d="M591.12,930.889 C594.74,963.499 600.129,1012.09 603.909,1046.21" style="stroke:#44506080;stroke-width:1;stroke-dasharray:7,7;" fill="none" id="RAGS-to-BM25"/><polygon points="604.46,1051.179,607.445,1041.794,603.909,1046.21,599.493,1042.675,604.46,1051.179" fill="#445060" fill-opacity="0.502" style="stroke:#44506080;stroke-width:1;stroke-linejoin:miter;stroke-miterlimit:10;"/><text x="598" y="979.808" fill="#000" font-size="12" textLength="105.299" font-family="'Segoe UI'">embedding creux</text></g><!--link RAGS to DOCS--><g class="link" data-entity-1="ent0011" data-entity-2="ent0014" id="lnk22" data-source-line="71" data-link-type="dependency"><path d="M469.69,925.509 C435.11,934.279 397.81,945.839 365,960.669 C312.11,984.579 261.724,1020.564 226.574,1048.134" style="stroke:#44506080;stroke-width:1;stroke-dasharray:7,7;" fill="none" id="RAGS-to-DOCS"/><polygon points="222.64,1051.219,232.19,1048.812,226.574,1048.134,227.253,1042.518,222.64,1051.219" fill="#445060" fill-opacity="0.502" style="stroke:#44506080;stroke-width:1;stroke-linejoin:miter;stroke-miterlimit:10;"/><text x="366" y="979.808" fill="#000" font-size="12" textLength="110.297" font-family="'Segoe UI'">lecture (ingestion)</text></g><!--link FRONT to APP--><g class="link" data-entity-1="ent0002" data-entity-2="ent0007" id="lnk31" data-source-line="100" data-link-type="dependency"><path d="M268.01,159.849 C275.4,178.379 287.28,205.639 301,227.549 C336.91,284.879 384.589,340.346 418.849,377.666" style="stroke:#44506080;stroke-width:1;" fill="none" id="FRONT-to-APP"/><polygon points="422.23,381.349,419.09,372.014,418.849,377.666,413.197,377.424,422.23,381.349" fill="#445060" fill-opacity="0.502" style="stroke:#44506080;stroke-width:1;stroke-linejoin:miter;stroke-miterlimit:10;"/><text x="312.828" y="210.688" fill="#000" font-size="12" textLength="90.855" font-weight="700" font-family="'Segoe UI'">HTTPS / REST</text><text x="407.498" y="210.688" fill="#000" font-size="12" textLength="26.947" font-family="'Segoe UI'">:443</text><text x="302" y="224.657" fill="#000" font-size="12" textLength="143.273" font-family="'Segoe UI'">TLS terminé par Render</text></g><!--link VIEWER to APP--><g class="link" data-entity-1="ent0003" data-entity-2="ent0007" id="lnk32" data-source-line="101" data-link-type="dependency"><path d="M459.01,166.889 C457.79,176.869 456.6,188.189 456,198.549 C452.28,262.449 454.431,331.905 456.551,376.155" style="stroke:#44506080;stroke-width:1;" fill="none" id="VIEWER-to-APP"/><polygon points="456.79,381.149,460.355,371.968,456.551,376.155,452.364,372.351,456.79,381.149" fill="#445060" fill-opacity="0.502" style="stroke:#44506080;stroke-width:1;stroke-linejoin:miter;stroke-miterlimit:10;"/><text x="472.015" y="210.688" fill="#000" font-size="12" textLength="90.855" font-weight="700" font-family="'Segoe UI'">HTTPS / REST</text><text x="566.685" y="210.688" fill="#000" font-size="12" textLength="26.947" font-family="'Segoe UI'">:443</text><text x="457" y="224.657" fill="#000" font-size="12" textLength="151.646" font-family="'Segoe UI'">CORS allow_origins=["*"]</text></g><!--link SCALAR to APP--><g class="link" data-entity-1="ent0004" data-entity-2="ent0007" id="lnk33" data-source-line="102" data-link-type="dependency"><path d="M641.84,166.759 C634.83,184.739 624.7,208.209 613,227.549 C578.34,284.849 531.839,340.288 498.339,377.618" style="stroke:#44506080;stroke-width:1;" fill="none" id="SCALAR-to-APP"/><polygon points="495,381.339,503.988,377.313,498.339,377.618,498.034,371.969,495,381.339" fill="#445060" fill-opacity="0.502" style="stroke:#44506080;stroke-width:1;stroke-linejoin:miter;stroke-miterlimit:10;"/><text x="628" y="217.688" fill="#000" font-size="12" textLength="43.852" font-weight="700" font-family="'Segoe UI'">HTTPS</text><text x="675.666" y="217.688" fill="#000" font-size="12" textLength="26.947" font-family="'Segoe UI'">:443</text></g><!--link VS to COLL--><g class="link" data-entity-1="ent0012" data-entity-2="ent0024" id="lnk34" data-source-line="104" data-link-type="dependency"><path d="M401,1113.429 C401,1155.749 401,1231.489 401,1287.229" style="stroke:#44506080;stroke-width:1;" fill="none" id="VS-to-COLL"/><polygon points="401,1292.229,405,1283.229,401,1287.229,397,1283.229,401,1292.229" fill="#445060" fill-opacity="0.502" style="stroke:#44506080;stroke-width:1;stroke-linejoin:miter;stroke-miterlimit:10;"/><text x="419.47" y="1184.718" fill="#000" font-size="12" textLength="90.855" font-weight="700" font-family="'Segoe UI'">HTTPS / REST</text><text x="514.14" y="1184.718" fill="#000" font-size="12" textLength="34.582" font-family="'Segoe UI'">:6333</text><text x="431.443" y="1198.687" fill="#000" font-size="12" textLength="105.305" font-family="'Segoe UI'">QDRANT_API_KEY</text><text x="402" y="1212.656" fill="#000" font-size="12" textLength="164.191" font-family="'Segoe UI'">upsert · query_points (RRF)</text></g><!--link RAGS to EMB--><g class="link" data-entity-1="ent0011" data-entity-2="ent0026" id="lnk35" data-source-line="105" data-link-type="dependency"><path d="M652.41,931.119 C671.79,940.119 692.96,950.409 712,960.669 C764.85,989.159 818.901,1022.925 858.651,1048.625" style="stroke:#44506080;stroke-width:1;" fill="none" id="RAGS-to-EMB"/><polygon points="862.85,1051.339,857.464,1043.094,858.651,1048.625,853.12,1049.812,862.85,1051.339" fill="#445060" fill-opacity="0.502" style="stroke:#44506080;stroke-width:1;stroke-linejoin:miter;stroke-miterlimit:10;"/><text x="763" y="972.808" fill="#000" font-size="12" textLength="90.855" font-weight="700" font-family="'Segoe UI'">HTTPS / REST</text><text x="857.67" y="972.808" fill="#000" font-size="12" textLength="26.947" font-family="'Segoe UI'">:443</text><text x="774.432" y="986.777" fill="#000" font-size="12" textLength="98.754" font-family="'Segoe UI'">OPENAI_API_KEY</text></g><!--link RAGS to RERANK--><g class="link" data-entity-1="ent0011" data-entity-2="ent0028" id="lnk36" data-source-line="106" data-link-type="dependency"><path d="M690.65,931.119 C720.84,938.619 754.08,946.039 785,951.169 C832.53,959.059 845.51,952.539 893,960.669 C958.13,971.829 975.24,974.179 1037,997.669 C1080.93,1014.379 1124.004,1037.106 1156.864,1055.806" style="stroke:#44506080;stroke-width:1;" fill="none" id="RAGS-to-RERANK"/><polygon points="1161.21,1058.279,1155.366,1050.351,1156.864,1055.806,1151.41,1057.304,1161.21,1058.279" fill="#445060" fill-opacity="0.502" style="stroke:#44506080;stroke-width:1;stroke-linejoin:miter;stroke-miterlimit:10;"/><text x="1014" y="972.808" fill="#000" font-size="12" textLength="90.855" font-weight="700" font-family="'Segoe UI'">HTTPS / REST</text><text x="1108.67" y="972.808" fill="#000" font-size="12" textLength="26.947" font-family="'Segoe UI'">:443</text><text x="1022.751" y="986.777" fill="#000" font-size="12" textLength="104.115" font-family="'Segoe UI'">COHERE_API_KEY</text></g><!--link CHATS to LLM--><g class="link" data-entity-1="ent0010" data-entity-2="ent0030" id="lnk37" data-source-line="107" data-link-type="dependency"><path d="M638.84,755.709 C698.62,789.149 792.497,841.678 849.297,873.458" style="stroke:#44506080;stroke-width:1;" fill="none" id="CHATS-to-LLM"/><polygon points="853.66,875.899,847.759,868.014,849.297,873.458,843.853,874.996,853.66,875.899" fill="#445060" fill-opacity="0.502" style="stroke:#44506080;stroke-width:1;stroke-linejoin:miter;stroke-miterlimit:10;"/><text x="745.313" y="797.368" fill="#000" font-size="12" textLength="90.855" font-weight="700" font-family="'Segoe UI'">HTTPS / REST</text><text x="839.982" y="797.368" fill="#000" font-size="12" textLength="26.947" font-family="'Segoe UI'">:443</text><text x="744" y="811.337" fill="#000" font-size="12" textLength="124.242" font-family="'Segoe UI'">ANTHROPIC_API_KEY</text></g><g class="legend" data-source-line="110"><rect x="888.958" y="1453.359" width="474.058" height="128.078" fill="none" style="stroke:#000;stroke-width:1;" rx="2" ry="2"/><text x="898.832" y="1473.354" fill="#000" font-size="14" textLength="87.623" font-weight="700" font-family="'Segoe UI'">Stéréotype</text><text x="1087.682" y="1473.354" fill="#000" font-size="14" textLength="99.381" font-weight="700" font-family="'Segoe UI'">Signification</text><text x="898.408" y="1489.651" fill="#000" font-size="14" textLength="179.949" font-family="'Segoe UI'">«execution environment»</text><text x="1087.258" y="1489.651" fill="#000" font-size="14" textLength="254.229" font-family="'Segoe UI'">Calcul que nous exploitons (Render)</text><text x="898.408" y="1505.948" fill="#000" font-size="14" textLength="159.339" font-family="'Segoe UI'">«managed data store»</text><text x="1087.258" y="1505.948" fill="#000" font-size="14" textLength="266.308" font-family="'Segoe UI'">Stockage vectoriel persistant managé</text><text x="898.408" y="1522.245" fill="#000" font-size="14" textLength="129.828" font-family="'Segoe UI'">«external service»</text><text x="1087.258" y="1522.245" fill="#000" font-size="14" textLength="193.129" font-family="'Segoe UI'">IA tierce, facturée à l'usage</text><line x1="893.958" y1="1460.359" x2="1358.015" y2="1460.359" style="stroke:#000;stroke-width:1;"/><line x1="893.958" y1="1476.656" x2="1358.015" y2="1476.656" style="stroke:#000;stroke-width:1;"/><line x1="893.958" y1="1492.953" x2="1358.015" y2="1492.953" style="stroke:#000;stroke-width:1;"/><line x1="893.958" y1="1509.25" x2="1358.015" y2="1509.25" style="stroke:#000;stroke-width:1;"/><line x1="893.958" y1="1525.547" x2="1358.015" y2="1525.547" style="stroke:#000;stroke-width:1;"/><line x1="893.958" y1="1460.359" x2="893.958" y2="1525.547" style="stroke:#000;stroke-width:1;"/><line x1="1082.807" y1="1460.359" x2="1082.807" y2="1525.547" style="stroke:#000;stroke-width:1;"/><line x1="1358.015" y1="1460.359" x2="1358.015" y2="1525.547" style="stroke:#000;stroke-width:1;"/><text x="893.958" y="1540.542" fill="#000" font-size="14" textLength="384.829" font-family="'Segoe UI'">Secrets injectés en variables d'environnement Render.</text><text x="893.958" y="1556.839" fill="#000" font-size="14" textLength="321.535" font-family="'Segoe UI'">Aucun fichier .env n'est présent dans l'image.</text><text x="893.958" y="1573.136" fill="#000" font-size="14" textLength="407.278" font-family="'Segoe UI'">docker-compose.yml = développement local uniquement.</text></g><?plantuml-src tLZDSXkv4RxpAJhCmH9tXwH8IjQgrgwYHyEOPLdaabflKc5A1Ss099OWC05cQ6bNMxMdF41g7o37rJrLkOTluYV91mn9qVgnAqVPaaiYq6Xq0rz_-5f_oAPypYcLJAXI9ZB9wLYmYM5pZ2RuNjwaKWlOg8m-_FeRzJiHdV29i99bGYiQShCGCQUTGVjFkwMIdGcLCYod2nRF9aRdAWcrr8R-sF7_jYpib2NwlL0J6ZDf-TPCmiSibrb7g-oK8P3oa4yqf--xvOUDXk8dJdkDhScsCVhzQkDMQxz-K3-iRqsluZAA6sfjHwqqalwvHFHAcuIRbOT6kDyvZDpetQIYTcUlSuWP5yPgRE-WKM-4fL-stCPIvybzl-rl3bgDzaD-iLqdQdxMRy8oTi7iGo57pu_tNpqOya6d4OMV3rdFKwtSjT_p_RnzUFZDmODX5tVyET_CP6BCul_FzJ6-eaTSbvxHXzz-VOhVY9pE162uvyihbW97RfzmFhw2odrjCxxAfapVVfjmnn8lNnAp59vqezCpV_Ut82ktqrIAk22LiS4T1rmbPMVV6VHEppusxggC6o38SrJ6RKQWdv7QKMmX9YpZkTdrIzzren-YmSThXp6Jp52DUYbNxNvtf6hM3_aLmx1zqXvy6P1gU4WDS8xui0DgjpoNX5nZ_FXxpi5skIL-wHW-qyhkFddOhN9rQV_0BzQFamCWl-Hnxi75rK80N-v5A_0uY4wFem7m29mKRaB0ZokWY8vrFEDcf2RJs5I5hZ6R6IO3EwtbYwFqAfjgrQpkjO8BhMVljPa7LehvI4L_xlU64HtMwtMtUGn_U62vAJOyxeLlrXlIBHcMAvKE_0EIbOfFOOurrVHgfCOOPgaWaoiAWYbgY-fL_uMFgJQPtscamjvWIF_z3qsPIYJE8Nd6BsEUkhGjJQI-O7Aaf1Xpcp957_xnJno6pGq_ZxMKF7PsEqNXjFlz8hgjmecdB3i79QFUK3E8fxROgybRBU0NXg_RPuExAmsRt5k8CRy0XNlFFiHEgxiRgTHW8YEMJzoLBM_eAx98MG3EcSdZB3VB6xxPUtZNru1DDgxYQQvcJd3WZFZyWYV9weFXcH5ymUGwf7jktk5uj1dYl_FZUOs-ImnpzEQ8PlZmPKPk5t-PXN7jOjxOhrH6QW5_09YbsF3yyciIAa2YCRUMTiB-zxiZnV8OrytIb4j2YfQpt6_rwcrZ_yvUCAebEixT0TaQujCcHMM_PMO6XQL8YWKyG2q01lAPcBC9ajYnLpPR_bxelB68fw0CIz1xq-NDVFcxuGKI0DPLRi04uFPowuhN8vixz5CRe-8GtIIjpOORi-77G-wNmkhTra2r-jBdIqTRz-LFx6CR5oHi78O1Pzg16Hu5O78NThzy6MpUz31Aj5B0kmKvA3PnlptXr3RojLnK1uLE9pl6zDcXSfm5wXnLLr3dTyU3zaextCB_bhr6gbBP54AmuQO5ju6OEw8CyDhXXwj0dEO8huN2zaVKh3zlK2BcZWnYRONAGLMkLWcJ7d1kPguJCNOYnJqDtUFEI0bukAIKNKdD4fXQdHlN3Stu5Pw316KypgrxTGQ33iNBVpl-ig0ZE2WegtToyYN1SupybR3MKrktJPaZbIUSNT6ubRrKx1Ow0ifJCUblSIDfU_tejDsz0yiCji66je9c08tfY7SpPCd33uo_XX_m8dNcngdPeEM_75klgSpZ9Nhxoi5b5LQefzpmnyCAUw-ZGNGdBCDHQhDWqQhM0oSiy5mORItaTgoTU3gYlNs8H9K859_rAY7JAUqNJsE4-dkp5K9RPLEZKn4_7WKAzlMWr--6TyjMiZpXWGMZyIne1GUGMSiRi9ifke2lK8cvoiupFSCn-UrFJju--Me9ftmkbBzZw8jvhbPTpnFEodTenUlj9C4HLIglpyxwGpHPWsXu1Zbxr6erH-hiP8XkpI1zq62A9gpGwwMYJVlyUgzlcPJw_RasOe9JVF7NSgNyjrBHjTrti5fPAhs3k2Xq2GYNwC4j3ffDx56yCETGuUTleh-CL9u2p9bZVtHCvkeyrG9l2-s0q7TBNe0ujwXBUiIjZxmWYBNNstL5FNqgOrV1ctMtmWcLyAdzDZMtMVg4uOLt73WXtFWq0uDSlw0Xtb4eMfrTfTn_5XDLlCoEEAwTqITwlciA7-s1SR4UaxiRBmzAaMk4WDOG4xJmdO60Ia_nrWbqQX0oAtMs5SezPhnUluyn_veS8_f6fY3zt3hFRl6GGtq0RqBzY7tG1Y0NMZ0Zs8N4ou4EhqXD5N-YBOAlOc7RjmyhNKzLc95wvlvIalfc0hRRxO1RaVXUD_1DZ-NLgxca5-uFm0ikDReGxr_g64c0it1qRg1QugxLTFVpFm00?></g></svg>