<svg xmlns="http://www.w3.org/2000/svg" xmlns:xlink="http://www.w3.org/1999/xlink" contentStyleType="text/css" height="1088px" preserveAspectRatio="none" style="width:1572px;height:1088px;background:#FFFFFF;" version="1.1" viewBox="0 0 1572 1088" width="1572px" zoomAndPan="magnify"><title>Diagramme de d&#233;ploiement &#8212; PFE Legislation Service (RAG)</title><defs/><g><text fill="#000000" font-family="Segoe UI" font-size="22" font-weight="bold" lengthAdjust="spacing" textLength="626.0547" x="468.9463" y="38.7402">Diagramme de d&#233;ploiement &#8212; PFE Legislation Service (RAG)</text><!--cluster CLIENT--><g id="cluster_CLIENT"><polygon fill="#EAF1F8" points="311,71.2617,321,61.2617,553,61.2617,553,193.2617,543,203.2617,311,203.2617,311,71.2617" style="stroke:#2C5F8E;stroke-width:1.0;"/><line style="stroke:#2C5F8E;stroke-width:1.0;" x1="543" x2="553" y1="71.2617" y2="61.2617"/><line style="stroke:#2C5F8E;stroke-width:1.0;" x1="311" x2="543" y1="71.2617" y2="71.2617"/><line style="stroke:#2C5F8E;stroke-width:1.0;" x1="543" x2="543" y1="71.2617" y2="203.2617"/><text fill="#16202C" font-family="Segoe UI" font-size="12" font-style="italic" lengthAdjust="spacing" textLength="44.543" x="405.7285" y="87.2109">&#171;device&#187;</text><text fill="#16202C" font-family="Segoe UI" font-size="12" font-weight="bold" lengthAdjust="spacing" textLength="65.4609" x="395.2695" y="103.1719">Poste client</text></g><!--cluster RENDER--><g id="cluster_RENDER"><polygon fill="#EAF1F8" points="21,290.2617,31,280.2617,578,280.2617,578,863.2617,568,873.2617,21,873.2617,21,290.2617" style="stroke:#2C5F8E;stroke-width:1.0;"/><line style="stroke:#2C5F8E;stroke-width:1.0;" x1="568" x2="578" y1="290.2617" y2="280.2617"/><line style="stroke:#2C5F8E;stroke-width:1.0;" x1="21" x2="568" y1="290.2617" y2="290.2617"/><line style="stroke:#2C5F8E;stroke-width:1.0;" x1="568" x2="568" y1="290.2617" y2="873.2617"/><text fill="#16202C" font-family="Segoe UI" font-size="12" font-style="italic" lengthAdjust="spacing" textLength="130.418" x="230.291" y="306.2109">&#171;execution environment&#187;</text><text fill="#16202C" font-family="Segoe UI" font-size="12" font-weight="bold" lengthAdjust="spacing" textLength="128.3672" x="231.3164" y="322.1719">Render &#8212; Web Service</text></g><!--cluster DOCKER--><g id="cluster_DOCKER"><polygon fill="#EAF1F8" points="45,353.2617,55,343.2617,554,343.2617,554,839.2617,544,849.2617,45,849.2617,45,353.2617" style="stroke:#2C5F8E;stroke-width:1.0;"/><line style="stroke:#2C5F8E;stroke-width:1.0;" x1="544" x2="554" y1="353.2617" y2="343.2617"/><line style="stroke:#2C5F8E;stroke-width:1.0;" x1="45" x2="544" y1="353.2617" y2="353.2617"/><line style="stroke:#2C5F8E;stroke-width:1.0;" x1="544" x2="544" y1="353.2617" y2="849.2617"/><text fill="#16202C" font-family="Segoe UI" font-size="12" font-style="italic" lengthAdjust="spacing" textLength="61.0723" x="264.9639" y="369.2109">&#171;container&#187;</text><text fill="#16202C" font-family="Segoe UI" font-size="12" font-weight="bold" lengthAdjust="spacing" textLength="102.2637" x="244.3682" y="385.1719">Conteneur Docker</text><text fill="#16202C" font-family="Segoe UI" font-size="12" font-weight="bold" lengthAdjust="spacing" textLength="226.9629" x="182.0186" y="401.1328">python 3.14-bookworm-slim &#183; port 8000</text></g><!--cluster QDRANT--><g id="cluster_QDRANT"><path d="M602,671.2617 C602,661.2617 741,661.2617 741,661.2617 C741,661.2617 880,661.2617 880,671.2617 L880,859.2617 C880,869.2617 741,869.2617 741,869.2617 C741,869.2617 602,869.2617 602,859.2617 L602,671.2617 " fill="#E6F2EC" style="stroke:#2E7D5B;stroke-width:1.0;"/><path d="M602,671.2617 C602,681.2617 741,681.2617 741,681.2617 C741,681.2617 880,681.2617 880,671.2617 " fill="none" style="stroke:#2E7D5B;stroke-width:1.0;"/><text fill="#16202C" font-family="Segoe UI" font-size="12" font-style="italic" lengthAdjust="spacing" textLength="116.3672" x="682.8164" y="696.2109">&#171;managed data store&#187;</text><text fill="#16202C" font-family="Segoe UI" font-size="12" font-weight="bold" lengthAdjust="spacing" textLength="75.9258" x="703.0371" y="712.1719">Qdrant Cloud</text></g><!--cluster OPENAI--><g id="cluster_OPENAI"><path d="M919.6147,713.5587 C922.8292,703.8699 929.6707,703.6959 935.8184,710.7137 C940.944,701.6754 947.6653,701.2911 953.3789,710.1362 C958.207,702.4482 964.7295,700.3348 970.5034,709.1551 C973.4381,702.3714 980.5267,700.7189 985.6333,706.5501 C991.8833,698.0948 997.7748,698.2619 1004.0209,706.5543 C1007.9835,698.516 1013.9,698.7371 1019.1932,705.1581 C1023.0617,697.6556 1031.0698,698.3128 1035.2739,704.7716 C1040.66,698.009 1047.5639,699.6481 1051.2568,706.7268 C1057.0996,699.6304 1064.3953,701.4324 1067.9323,709.2969 C1074.9218,700.3235 1081.224,702.7773 1086.1363,711.4409 C1089.8002,704.8528 1096.4352,703.5956 1100.7216,710.7817 C1112.8059,702.3429 1119.8058,706.0415 1124,719.2617 C1124.5826,719.3379 1124.6687,719.7725 1124.3901,720.2049 C1134.3701,726.0514 1133.4981,731.8101 1124.8731,738.1572 C1134.0595,743.6129 1134.5656,749.5961 1127.5299,757.3029 C1135.7176,762.7265 1135.1108,768.6962 1127.0916,773.6862 C1135.2535,778.9984 1135.783,788.7359 1126.1525,793.1915 C1134.6659,798.6707 1134.8914,804.2586 1126.9882,810.529 C1135.6658,822.3776 1131.0367,831.3932 1117,833.2617 C1117.4651,832.9162 1117.7518,833.1966 1117.8445,833.6536 C1113.0382,841.3216 1108.198,841.231 1103.0201,834.0239 C1097.5729,842.4824 1092.1142,842.1694 1086.5212,834.1701 C1082.096,843.8152 1074.2961,843.8439 1069.1249,834.867 C1064.7745,843.1371 1056.3006,844.2872 1051.1956,835.6682 C1048.0349,843.3455 1040.5508,843.1534 1036.1234,837.054 C1030.8296,843.5209 1024.2237,843.4236 1020.5989,835.2806 C1014.5596,843.6129 1008.5452,842.7775 1003.1086,834.6405 C997.7619,843.5748 990.8141,844.2044 985.1038,835.0016 C980.7306,841.7083 974.2292,840.535 970.6303,834.1459 C965.4559,843.0093 960.1299,841.4656 954.4471,834.6713 C950.7271,843.5037 943.4152,843.5957 938.3026,836.0435 C924.8079,845.4035 915.9972,842.4401 912,826.2617 C913.736,825.6487 914.7892,826.8402 914.4649,828.4981 C903.1796,824.4814 903.4118,818.5536 909.9474,810.1493 C900.6039,806.6112 899.6671,797.667 907.3302,791.7145 C898.6317,786.9684 895.9678,779.6018 905.517,773.0801 C897.8472,767.7702 900.7027,761.0871 907.4666,757.5943 C899.1603,750.0721 898.4029,743.4943 909.3797,737.8397 C901.0147,726.7196 902.7232,714.1136 919,712.2617 C919.8506,712.3159 920.0968,712.8728 919.6147,713.5587 " fill="#F8EFE3" style="stroke:#A9642A;stroke-width:1.0;"/><text fill="#16202C" font-family="Segoe UI" font-size="12" font-style="italic" lengthAdjust="spacing" textLength="91.9746" x="972.0127" y="730.2109">&#171;external service&#187;</text><text fill="#16202C" font-family="Segoe UI" font-size="12" font-weight="bold" lengthAdjust="spacing" textLength="42.5332" x="996.7334" y="746.1719">OpenAI</text></g><!--cluster COHERE--><g id="cluster_COHERE"><path d="M1171.6887,713.7812 C1175.5587,706.0728 1179.7892,705.5711 1185.1225,712.432 C1188.0279,707.089 1192.0983,706.5987 1195.6735,711.7592 C1197.4554,705.7196 1202.9624,703.0202 1207.8602,708.4478 C1211.6173,702.5743 1215.7129,702.1095 1220.2406,707.6091 C1224.3611,701.336 1228.7835,700.5063 1233.1068,707.4111 C1235.6372,700.9957 1239.836,699.9541 1244.7436,704.9969 C1248.8895,700.5732 1253.4818,701.036 1255.3861,707.2414 C1259.315,701.3836 1264.0203,701.6756 1268.0975,707.074 C1273.5017,703.3487 1277.3182,703.6927 1279.7672,710.3845 C1284.2731,703.899 1288.6564,704.4691 1292.4828,711.0459 C1296.1094,705.2962 1300.0807,705.8928 1303.6581,711.0961 C1311.9383,704.9311 1321.2955,708.4099 1322,719.2617 C1322.9101,718.6555 1323.8498,718.9541 1323.8139,720.1922 C1330.0254,723.2807 1330.5408,729.8637 1324.3745,733.4747 C1331.5616,737.2355 1331.9536,743.2232 1325.4982,748.0367 C1331.038,752.7378 1331.4332,757.4323 1324.5907,761.2851 C1331.1194,764.9387 1332.8581,769.4681 1326.4469,774.8876 C1331.6256,778.6416 1332.2245,783.1535 1326.0674,786.5383 C1333.136,791.3938 1331.6061,798.107 1324.5526,801.5361 C1330.037,806.4073 1330.7265,810.6207 1323.5832,814.5513 C1330.7586,823.7889 1325.5713,832.1653 1315,833.2617 C1315.7346,833.1319 1315.9771,833.4351 1315.9215,834.1371 C1312.7681,840.0925 1308.676,840.3829 1305.0104,834.6138 C1301.1864,840.4028 1295.8063,841.6626 1291.7338,834.8762 C1289.0847,842.2226 1283.5647,841.7782 1279.1265,836.6901 C1276.2134,842.1368 1270.663,843.5294 1267.2878,837.1529 C1264.4349,841.8419 1258.819,842.6681 1255.8544,837.2796 C1253.626,843.3548 1248.3288,846.001 1243.2878,840.2744 C1239.672,845.017 1234.9507,843.775 1232.3778,839.07 C1227.6191,843.3312 1222.5077,843.963 1220.1518,836.5529 C1216.1612,841.9668 1211.655,843.6471 1207.2463,837.0002 C1203.6815,841.6936 1200.0828,842.0316 1196.697,836.8098 C1192.2057,841.6354 1186.8309,840.5597 1184.1411,834.694 C1174.1108,843.3798 1165.284,838.4673 1164,826.2617 C1164.5965,825.6253 1165.2509,825.7315 1165.4909,826.6121 C1159.6976,822.816 1158.4237,817.8766 1164.6788,813.343 C1159.2171,810.4284 1158.3493,804.34 1163.8209,800.6845 C1157.9311,797.007 1155.503,791.6201 1162.7241,786.8995 C1155.8365,782.7365 1155.8214,777.7448 1162.6265,773.4822 C1155.2705,770.0981 1155.4836,763.4177 1162.5626,759.9653 C1156.9384,756.219 1156.7322,750.2644 1163.3193,747.2444 C1157.3578,742.5523 1158.5627,737.5486 1165.0203,734.5161 C1157.4528,725.8892 1157.9205,715.3408 1171,712.2617 C1172.0414,712.3528 1172.2818,712.9493 1171.6887,713.7812 " fill="#F8EFE3" style="stroke:#A9642A;stroke-width:1.0;"/><text fill="#16202C" font-family="Segoe UI" font-size="12" font-style="italic" lengthAdjust="spacing" textLength="91.9746" x="1197.0127" y="730.2109">&#171;external service&#187;</text><text fill="#16202C" font-family="Segoe UI" font-size="12" font-weight="bold" lengthAdjust="spacing" textLength="39.8086" x="1223.0957" y="746.1719">Cohere</text></g><!--cluster ANTHROPIC--><g id="cluster_ANTHROPIC"><path d="M1371.111,722.0314 C1374.1674,716.1432 1379.3711,714.5297 1384.1409,720.0797 C1387.8917,713.6702 1393.5871,712.1605 1398.7152,718.5061 C1402.2812,711.2589 1408.8991,711.3681 1413.1507,717.7818 C1417.6644,710.14 1423.4771,712.1132 1427.6679,718.1252 C1431.5164,711.2296 1436.6128,710.0741 1442.3696,715.924 C1447.4368,706.9512 1453.1191,708.0645 1458.958,715.1257 C1464.5873,707.5913 1469.0296,708.7505 1473.4452,716.292 C1479.2618,710.6195 1484.2066,711.2093 1488.2747,718.3204 C1491.9204,711.9634 1498.9062,709.9659 1503.3307,717.4748 C1507.7278,712.2103 1512.6214,712.7567 1516.2242,718.4126 C1521.4104,712.5736 1526.8226,713.0377 1530.6898,719.9131 C1541.0221,713.1857 1547.8473,716.0689 1552,727.2617 C1552.3692,727.4595 1552.454,727.7399 1552.0873,728.0221 C1560.7628,730.7138 1562.5603,737.6631 1555.0493,743.4603 C1561.7973,746.9009 1563.7742,754.4525 1556.2459,758.9929 C1565.3657,762.0274 1565.9473,769.6451 1558.4554,774.9761 C1564.4155,779.9535 1562.6854,786.0843 1556.112,788.9615 C1562.147,793.7942 1561.4864,801.063 1554.4982,804.5472 C1560.9633,814.036 1557.5297,824.4826 1545,825.2617 C1545.6271,825.5813 1545.6557,826.0693 1545.071,826.4607 C1541.9114,832.9735 1534.8526,833.7098 1530.7271,827.5543 C1527.3906,833.5728 1523.2194,835.8235 1517.76,829.8499 C1514.831,838.4165 1508.2403,838.4318 1503.1512,831.9462 C1498.4112,838.7076 1493.9767,838.9993 1488.8924,832.3112 C1485.2995,840.9173 1478.3055,842.1795 1472.184,834.985 C1469.2503,842.0602 1464.5125,842.5698 1459.4977,837.0874 C1453.9995,843.9267 1447.1865,843.8836 1443.9715,834.8536 C1438.1156,842.1288 1432.859,839.7801 1428.7356,832.9784 C1423.0308,838.3923 1417.8785,839.1763 1413.8911,831.0899 C1408.3257,837.5862 1401.9617,838.0328 1398.5115,828.9957 C1393.0357,835.3971 1388.3735,835.4656 1384.5858,827.3738 C1373.0122,833.6333 1365.8106,831.2441 1362,818.2617 C1362.8286,817.2408 1364.0343,817.3265 1364.4355,818.697 C1355.7432,814.8475 1355.617,808.9181 1363.0888,803.6243 C1355.9501,800.9455 1355.3217,795.7111 1359.9811,790.2839 C1353.2293,786.6505 1351.6155,779.6317 1358.6893,774.8417 C1351.5353,769.4324 1354.6532,762.9499 1361.4169,760.1192 C1352.7389,756.4367 1352.9436,748.9916 1360.6232,744.4789 C1351.8267,733.4525 1353.4172,722.8552 1369,720.2617 C1370.5398,719.9244 1371.2647,720.3487 1371.111,722.0314 " fill="#F8EFE3" style="stroke:#A9642A;stroke-width:1.0;"/><text fill="#16202C" font-family="Segoe UI" font-size="12" font-style="italic" lengthAdjust="spacing" textLength="91.9746" x="1411.0127" y="738.2109">&#171;external service&#187;</text><text fill="#16202C" font-family="Segoe UI" font-size="12" font-weight="bold" lengthAdjust="spacing" textLength="56.3145" x="1428.8428" y="754.1719">Anthropic</text></g><!--entity FRONT--><g id="elem_FRONT"><rect fill="#FFFFFF" height="70.8828" rx="2" ry="2" style="stroke:#7A8896;stroke-width:1.0;" width="208.5879" x="327.5" y="116.2617"/><polygon fill="#FFFFFF" points="519.0879,121.2617,519.0879,135.2617,531.0879,135.2617,531.0879,127.2617,525.0879,121.2617,519.0879,121.2617" style="stroke:#7A8896;stroke-width:1.0;"/><line style="stroke:#7A8896;stroke-width:1.0;" x1="525.0879" x2="525.0879" y1="121.2617" y2="127.2617"/><line style="stroke:#7A8896;stroke-width:1.0;" x1="531.0879" x2="525.0879" y1="127.2617" y2="127.2617"/><text fill="#16202C" font-family="Segoe UI" font-size="12" lengthAdjust="spacing" textLength="114.1406" x="337.5" y="142.2109">Application front-end</text><text fill="#16202C" font-family="Segoe UI" font-size="12" lengthAdjust="spacing" textLength="178.5879" x="337.5" y="158.1719">Interface de test RAG (navigateur)</text><text fill="#16202C" font-family="Segoe UI" font-size="12" lengthAdjust="spacing" textLength="142.4531" x="337.5" y="174.1328">Scalar / OpenAPI &#8212; /scalar</text></g><!--entity APP--><g id="elem_APP"><rect fill="#FFFFFF" height="157.8203" rx="2" ry="2" style="stroke:#7A8896;stroke-width:1.0;" width="211.8516" x="326" y="414.2617"/><polygon fill="#FFFFFF" points="520.8516,419.2617,520.8516,433.2617,532.8516,433.2617,532.8516,425.2617,526.8516,419.2617,520.8516,419.2617" style="stroke:#7A8896;stroke-width:1.0;"/><line style="stroke:#7A8896;stroke-width:1.0;" x1="526.8516" x2="526.8516" y1="419.2617" y2="425.2617"/><line style="stroke:#7A8896;stroke-width:1.0;" x1="532.8516" x2="526.8516" y1="425.2617" y2="425.2617"/><text fill="#16202C" font-family="Segoe UI" font-size="12" font-weight="bold" lengthAdjust="spacing" textLength="85.7285" x="336" y="440.2109">Service FastAPI</text><text fill="#16202C" font-family="Courier" font-size="12" lengthAdjust="spacing" textLength="101.3848" x="336" y="455.6797">fastapi&#160;run&#160;main.py</text><text fill="#16202C" font-family="Segoe UI" font-size="12" lengthAdjust="spacing" textLength="175.8516" x="336" y="487.2266">chat_routes &#8212; /api/v1/legislation</text><text fill="#16202C" font-family="Segoe UI" font-size="12" lengthAdjust="spacing" textLength="133.9805" x="336" y="503.1875">rag_routes &#8212; /api/v1/rag</text><line style="stroke:#7A8896;stroke-width:1.0;" x1="327" x2="413.709" y1="466.2969" y2="466.2969"/><line style="stroke:#7A8896;stroke-width:1.0;" x1="327" x2="413.709" y1="468.2969" y2="468.2969"/><text fill="#16202C" font-family="Segoe UI" font-size="12" lengthAdjust="spacing" textLength="36.4336" x="413.709" y="470.7656">Routes</text><line style="stroke:#7A8896;stroke-width:1.0;" x1="450.1426" x2="536.8516" y1="466.2969" y2="466.2969"/><line style="stroke:#7A8896;stroke-width:1.0;" x1="450.1426" x2="536.8516" y1="468.2969" y2="468.2969"/><text fill="#16202C" font-family="Segoe UI" font-size="12" lengthAdjust="spacing" textLength="128.5078" x="336" y="539.1094">ChatService &#183; RagService</text><text fill="#16202C" font-family="Segoe UI" font-size="12" lengthAdjust="spacing" textLength="142.0137" x="336" y="555.0703">VectorStore (client Qdrant)</text><line style="stroke:#7A8896;stroke-width:1.0;" x1="327" x2="410.7324" y1="518.1797" y2="518.1797"/><line style="stroke:#7A8896;stroke-width:1.0;" x1="327" x2="410.7324" y1="520.1797" y2="520.1797"/><text fill="#16202C" font-family="Segoe UI" font-size="12" lengthAdjust="spacing" textLength="42.3867" x="410.7324" y="522.6484">Services</text><line style="stroke:#7A8896;stroke-width:1.0;" x1="453.1191" x2="536.8516" y1="518.1797" y2="518.1797"/><line style="stroke:#7A8896;stroke-width:1.0;" x1="453.1191" x2="536.8516" y1="520.1797" y2="520.1797"/></g><!--entity BM25--><g id="elem_BM25"><rect fill="#FFFFFF" height="86.8438" rx="2" ry="2" style="stroke:#7A8896;stroke-width:1.0;" width="199.8984" x="61" y="746.2617"/><polygon fill="#FFFFFF" points="243.8984,751.2617,243.8984,765.2617,255.8984,765.2617,255.8984,757.2617,249.8984,751.2617,243.8984,751.2617" style="stroke:#7A8896;stroke-width:1.0;"/><line style="stroke:#7A8896;stroke-width:1.0;" x1="249.8984" x2="249.8984" y1="751.2617" y2="757.2617"/><line style="stroke:#7A8896;stroke-width:1.0;" x1="255.8984" x2="249.8984" y1="757.2617" y2="757.2617"/><text fill="#16202C" font-family="Segoe UI" font-size="12" font-weight="bold" lengthAdjust="spacing" textLength="157.2598" x="71" y="772.2109">FastEmbed &#8212; Qdrant/bm25</text><text fill="#16202C" font-family="Segoe UI" font-size="12" lengthAdjust="spacing" textLength="109.418" x="71" y="788.1719">vecteurs creux BM25</text><text fill="#16202C" font-family="Segoe UI" font-size="12" lengthAdjust="spacing" textLength="169.8984" x="71" y="804.1328">ex&#233;cut&#233; dans le processus (CPU)</text><text fill="#16202C" font-family="Segoe UI" font-size="12" lengthAdjust="spacing" textLength="102.7031" x="71" y="820.0938">aucun appel r&#233;seau</text></g><!--entity DOCS--><g id="elem_DOCS"><rect fill="#FFFFFF" height="70.8828" rx="2" ry="2" style="stroke:#7A8896;stroke-width:1.0;" width="220.8281" x="316.5" y="754.2617"/><polygon fill="#FFFFFF" points="520.3281,759.2617,520.3281,773.2617,532.3281,773.2617,532.3281,765.2617,526.3281,759.2617,520.3281,759.2617" style="stroke:#7A8896;stroke-width:1.0;"/><line style="stroke:#7A8896;stroke-width:1.0;" x1="526.3281" x2="526.3281" y1="759.2617" y2="765.2617"/><line style="stroke:#7A8896;stroke-width:1.0;" x1="532.3281" x2="526.3281" y1="765.2617" y2="765.2617"/><text fill="#16202C" font-family="Segoe UI" font-size="12" font-weight="bold" lengthAdjust="spacing" textLength="94.459" x="326.5" y="780.2109">app/documents/</text><text fill="#16202C" font-family="Segoe UI" font-size="12" lengthAdjust="spacing" textLength="190.8281" x="326.5" y="796.1719">corpus Markdown livr&#233; dans l'image</text><text fill="#16202C" font-family="Segoe UI" font-size="12" lengthAdjust="spacing" textLength="157.043" x="326.5" y="812.1328">syst&#232;me de fichiers &#233;ph&#233;m&#232;re</text></g><!--entity COLL--><g id="elem_COLL"><rect fill="#FFFFFF" height="126.7656" rx="2" ry="2" style="stroke:#7A8896;stroke-width:1.0;" width="245.2441" x="618.5" y="726.2617"/><polygon fill="#FFFFFF" points="846.7441,731.2617,846.7441,745.2617,858.7441,745.2617,858.7441,737.2617,852.7441,731.2617,846.7441,731.2617" style="stroke:#7A8896;stroke-width:1.0;"/><line style="stroke:#7A8896;stroke-width:1.0;" x1="852.7441" x2="852.7441" y1="731.2617" y2="737.2617"/><line style="stroke:#7A8896;stroke-width:1.0;" x1="858.7441" x2="852.7441" y1="737.2617" y2="737.2617"/><text fill="#16202C" font-family="Segoe UI" font-size="12" lengthAdjust="spacing" textLength="51" x="628.5" y="752.2109">collection</text><text fill="#16202C" font-family="Segoe UI" font-size="12" font-weight="bold" lengthAdjust="spacing" textLength="215.2441" x="628.5" y="768.1719">documents-legislatives-import-export</text><line style="stroke:#7A8896;stroke-width:1.0;" x1="619.5" x2="862.7441" y1="771.1836" y2="771.1836"/><text fill="#16202C" font-family="Segoe UI" font-size="12" lengthAdjust="spacing" textLength="138.5684" x="628.5" y="788.1328">dense : 3072 dim &#183; cosinus</text><text fill="#16202C" font-family="Segoe UI" font-size="12" lengthAdjust="spacing" textLength="164.6777" x="628.5" y="804.0938">bm25 : creux &#183; modificateur IDF</text><text fill="#16202C" font-family="Segoe UI" font-size="12" lengthAdjust="spacing" textLength="173.5078" x="628.5" y="820.0547">index payload : source (keyword)</text><text fill="#16202C" font-family="Segoe UI" font-size="12" lengthAdjust="spacing" textLength="123.8848" x="628.5" y="836.0156">fusion RRF c&#244;t&#233; serveur</text></g><!--entity EMB--><g id="elem_EMB"><rect fill="#FFFFFF" height="70.8828" rx="2" ry="2" style="stroke:#7A8896;stroke-width:1.0;" width="195.8086" x="920" y="754.2617"/><polygon fill="#FFFFFF" points="1098.8086,759.2617,1098.8086,773.2617,1110.8086,773.2617,1110.8086,765.2617,1104.8086,759.2617,1098.8086,759.2617" style="stroke:#7A8896;stroke-width:1.0;"/><line style="stroke:#7A8896;stroke-width:1.0;" x1="1104.8086" x2="1104.8086" y1="759.2617" y2="765.2617"/><line style="stroke:#7A8896;stroke-width:1.0;" x1="1110.8086" x2="1104.8086" y1="765.2617" y2="765.2617"/><text fill="#16202C" font-family="Segoe UI" font-size="12" font-weight="bold" lengthAdjust="spacing" textLength="136.8574" x="930" y="780.2109">text-embedding-3-large</text><text fill="#16202C" font-family="Segoe UI" font-size="12" lengthAdjust="spacing" textLength="165.8086" x="930" y="796.1719">embeddings denses (3072 dim)</text><text fill="#16202C" font-family="Segoe UI" font-size="12" lengthAdjust="spacing" textLength="119.2207" x="930" y="812.1328">lots de 32 &#224; l'ingestion</text></g><!--entity RERANK--><g id="elem_RERANK"><rect fill="#FFFFFF" height="70.8828" rx="2" ry="2" style="stroke:#7A8896;stroke-width:1.0;" width="141.8027" x="1172" y="754.2617"/><polygon fill="#FFFFFF" points="1296.8027,759.2617,1296.8027,773.2617,1308.8027,773.2617,1308.8027,765.2617,1302.8027,759.2617,1296.8027,759.2617" style="stroke:#7A8896;stroke-width:1.0;"/><line style="stroke:#7A8896;stroke-width:1.0;" x1="1302.8027" x2="1302.8027" y1="759.2617" y2="765.2617"/><line style="stroke:#7A8896;stroke-width:1.0;" x1="1308.8027" x2="1302.8027" y1="765.2617" y2="765.2617"/><text fill="#16202C" font-family="Segoe UI" font-size="12" font-weight="bold" lengthAdjust="spacing" textLength="90.7383" x="1182" y="780.2109">rerank-v4.0-fast</text><text fill="#16202C" font-family="Segoe UI" font-size="12" lengthAdjust="spacing" textLength="74.8828" x="1182" y="796.1719">cross-encoder</text><text fill="#16202C" font-family="Segoe UI" font-size="12" lengthAdjust="spacing" textLength="111.8027" x="1182" y="812.1328">15 candidats &#8594; top 5</text></g><!--entity LLM--><g id="elem_LLM"><rect fill="#FFFFFF" height="54.9219" rx="2" ry="2" style="stroke:#7A8896;stroke-width:1.0;" width="172.6875" x="1370.5" y="762.2617"/><polygon fill="#FFFFFF" points="1526.1875,767.2617,1526.1875,781.2617,1538.1875,781.2617,1538.1875,773.2617,1532.1875,767.2617,1526.1875,767.2617" style="stroke:#7A8896;stroke-width:1.0;"/><line style="stroke:#7A8896;stroke-width:1.0;" x1="1532.1875" x2="1532.1875" y1="767.2617" y2="773.2617"/><line style="stroke:#7A8896;stroke-width:1.0;" x1="1538.1875" x2="1532.1875" y1="773.2617" y2="773.2617"/><text fill="#16202C" font-family="Segoe UI" font-size="12" font-weight="bold" lengthAdjust="spacing" textLength="103.4648" x="1380.5" y="788.2109">claude-sonnet-4-6</text><text fill="#16202C" font-family="Segoe UI" font-size="12" lengthAdjust="spacing" textLength="142.6875" x="1380.5" y="804.1719">g&#233;n&#233;ration + count_tokens</text></g><!--link FRONT to APP--><g id="link_FRONT_APP"><path d="M432,187.5017 C432,240.4817 432,336.8417 432,408.2417 " fill="none" id="FRONT-to-APP" style="stroke:#5A6675;stroke-width:1.0;"/><polygon fill="#5A6675" points="432,414.2417,436,405.2417,432,409.2417,428,405.2417,432,414.2417" style="stroke:#5A6675;stroke-width:1.0;"/><text fill="#000000" font-family="Segoe UI" font-size="11" font-weight="bold" lengthAdjust="spacing" textLength="70.834" x="446.374" y="232.1318">HTTPS / REST</text><text fill="#000000" font-family="Segoe UI" font-size="11" lengthAdjust="spacing" textLength="20.1738" x="520.2212" y="232.1318">:443</text><text fill="#000000" font-family="Segoe UI" font-size="11" lengthAdjust="spacing" textLength="113.7437" x="436.5127" y="246.7627">TLS termin&#233; par Render</text><text fill="#000000" font-family="Segoe UI" font-size="11" lengthAdjust="spacing" textLength="120.769" x="433" y="261.3936">CORS allow_origins=["*"]</text></g><!--link APP to COLL--><g id="link_APP_COLL"><path d="M514,572.4117 C564.42,620.4617 623.8171,677.0717 670.9071,721.9617 " fill="none" id="APP-to-COLL" style="stroke:#5A6675;stroke-width:1.0;"/><polygon fill="#5A6675" points="675.25,726.1017,671.4957,716.9965,671.6309,722.6517,665.9757,722.787,675.25,726.1017" style="stroke:#5A6675;stroke-width:1.0;"/><text fill="#000000" font-family="Segoe UI" font-size="11" font-weight="bold" lengthAdjust="spacing" textLength="70.834" x="602.835" y="613.1318">HTTPS / REST</text><text fill="#000000" font-family="Segoe UI" font-size="11" lengthAdjust="spacing" textLength="26.1035" x="676.6821" y="613.1318">:6333</text><text fill="#000000" font-family="Segoe UI" font-size="11" lengthAdjust="spacing" textLength="87.0117" x="609.3044" y="627.7627">QDRANT_API_KEY</text><text fill="#000000" font-family="Segoe UI" font-size="11" lengthAdjust="spacing" textLength="129.6206" x="588" y="642.3936">upsert &#183; query_points (RRF)</text></g><!--link APP to EMB--><g id="link_APP_EMB"><path d="M538.38,516.9717 C634.28,540.7217 776.49,584.3017 885,653.2617 C927.7,680.4017 963.2267,719.0548 987.8667,749.3848 " fill="none" id="APP-to-EMB" style="stroke:#5A6675;stroke-width:1.0;"/><polygon fill="#5A6675" points="991.65,754.0417,989.0797,744.5342,988.4973,750.161,982.8705,749.5785,991.65,754.0417" style="stroke:#5A6675;stroke-width:1.0;"/><text fill="#000000" font-family="Segoe UI" font-size="11" font-weight="bold" lengthAdjust="spacing" textLength="70.834" x="863" y="620.1318">HTTPS / REST</text><text fill="#000000" font-family="Segoe UI" font-size="11" lengthAdjust="spacing" textLength="20.1738" x="936.8472" y="620.1318">:443</text><text fill="#000000" font-family="Segoe UI" font-size="11" lengthAdjust="spacing" textLength="81.6084" x="869.2063" y="634.7627">OPENAI_API_KEY</text></g><!--link APP to RERANK--><g id="link_APP_RERANK"><path d="M538.09,508.2317 C710.25,532.5117 1040.9,586.3817 1137,653.2617 C1174.88,679.6217 1202.5464,718.3808 1220.9964,749.0408 " fill="none" id="APP-to-RERANK" style="stroke:#5A6675;stroke-width:1.0;"/><polygon fill="#5A6675" points="1224.09,754.1817,1222.8769,744.4079,1221.512,749.8976,1216.0222,748.5327,1224.09,754.1817" style="stroke:#5A6675;stroke-width:1.0;"/><text fill="#000000" font-family="Segoe UI" font-size="11" font-weight="bold" lengthAdjust="spacing" textLength="70.834" x="1120" y="620.1318">HTTPS / REST</text><text fill="#000000" font-family="Segoe UI" font-size="11" lengthAdjust="spacing" textLength="20.1738" x="1193.8472" y="620.1318">:443</text><text fill="#000000" font-family="Segoe UI" font-size="11" lengthAdjust="spacing" textLength="83.9609" x="1125.03" y="634.7627">COHERE_API_KEY</text></g><!--link APP to LLM--><g id="link_APP_LLM"><path d="M538.32,497.4217 C693.19,504.4717 988.48,527.1817 1228,600.2617 C1278.76,615.7517 1292.71,621.1917 1335,653.2617 C1376.87,685.0117 1412.1382,727.7631 1434.2882,757.2731 " fill="none" id="APP-to-LLM" style="stroke:#5A6675;stroke-width:1.0;"/><polygon fill="#5A6675" points="1437.89,762.0717,1435.6864,752.4726,1434.8885,758.0729,1429.2882,757.275,1437.89,762.0717" style="stroke:#5A6675;stroke-width:1.0;"/><text fill="#000000" font-family="Segoe UI" font-size="11" font-weight="bold" lengthAdjust="spacing" textLength="70.834" x="1328.4929" y="620.1318">HTTPS / REST</text><text fill="#000000" font-family="Segoe UI" font-size="11" lengthAdjust="spacing" textLength="20.1738" x="1402.3401" y="620.1318">:443</text><text fill="#000000" font-family="Segoe UI" font-size="11" lengthAdjust="spacing" textLength="103.0068" x="1324" y="634.7627">ANTHROPIC_API_KEY</text></g><!--link APP to BM25--><g id="link_APP_BM25"><path d="M360.09,572.4117 C308.81,628.1317 245.8932,696.5169 204.1732,741.8469 " fill="none" id="APP-to-BM25" style="stroke:#5A6675;stroke-width:1.0;stroke-dasharray:7.0,7.0;"/><polygon fill="#5A6675" points="200.11,746.2617,209.148,742.3483,203.496,742.5827,203.2616,736.9307,200.11,746.2617" style="stroke:#5A6675;stroke-width:1.0;"/><text fill="#000000" font-family="Segoe UI" font-size="11" lengthAdjust="spacing" textLength="27.7739" x="341.2095" y="620.1318">&#171;use&#187;</text><text fill="#000000" font-family="Segoe UI" font-size="11" lengthAdjust="spacing" textLength="50.1929" x="330" y="634.7627">in-process</text></g><!--link APP to DOCS--><g id="link_APP_DOCS"><path d="M430.67,572.4117 C429.67,631.5417 428.4414,703.8926 427.6914,748.2626 " fill="none" id="APP-to-DOCS" style="stroke:#5A6675;stroke-width:1.0;stroke-dasharray:7.0,7.0;"/><polygon fill="#5A6675" points="427.59,754.2617,431.7415,745.3306,427.6745,749.2624,423.7427,745.1954,427.59,754.2617" style="stroke:#5A6675;stroke-width:1.0;"/><text fill="#000000" font-family="Segoe UI" font-size="11" lengthAdjust="spacing" textLength="32.7798" x="444.9363" y="620.1318">&#171;read&#187;</text><text fill="#000000" font-family="Segoe UI" font-size="11" lengthAdjust="spacing" textLength="58.6523" x="432" y="634.7627">&#224; l'ingestion</text></g><rect fill="none" height="181.5898" id="_legend" rx="2" ry="2" style="stroke:#000000;stroke-width:1.0;" width="427.9902" x="1125.9571" y="894.2617"/><text fill="#000000" font-family="Segoe UI" font-size="14" font-weight="bold" lengthAdjust="spacing" textLength="71.8115" x="1134.8194" y="916.3691">St&#233;r&#233;otype</text><text fill="#000000" font-family="Segoe UI" font-size="14" font-weight="bold" lengthAdjust="spacing" textLength="82.9951" x="1298.5879" y="916.3691">Signification</text><text fill="#000000" font-family="Segoe UI" font-size="14" lengthAdjust="spacing" textLength="156.0986" x="1134.792" y="934.9902">&#171;execution environment&#187;</text><text fill="#000000" font-family="Segoe UI" font-size="14" lengthAdjust="spacing" textLength="222.0518" x="1298.5606" y="934.9902">Calcul que nous exploitons (Render)</text><text fill="#000000" font-family="Segoe UI" font-size="14" lengthAdjust="spacing" textLength="138.1816" x="1134.792" y="953.6113">&#171;managed data store&#187;</text><text fill="#000000" font-family="Segoe UI" font-size="14" lengthAdjust="spacing" textLength="233.4678" x="1298.5606" y="953.6113">Stockage vectoriel persistant, manag&#233;</text><text fill="#000000" font-family="Segoe UI" font-size="14" lengthAdjust="spacing" textLength="109.1289" x="1134.792" y="972.2324">&#171;external service&#187;</text><text fill="#000000" font-family="Segoe UI" font-size="14" lengthAdjust="spacing" textLength="165.6758" x="1298.5606" y="972.2324">IA tierce, factur&#233;e &#224; l'usage</text><line style="stroke:#000000;stroke-width:1.0;" x1="1130.9571" x2="1535.8633" y1="901.2617" y2="901.2617"/><line style="stroke:#000000;stroke-width:1.0;" x1="1130.9571" x2="1535.8633" y1="919.8828" y2="919.8828"/><line style="stroke:#000000;stroke-width:1.0;" x1="1130.9571" x2="1535.8633" y1="938.5039" y2="938.5039"/><line style="stroke:#000000;stroke-width:1.0;" x1="1130.9571" x2="1535.8633" y1="957.125" y2="957.125"/><line style="stroke:#000000;stroke-width:1.0;" x1="1130.9571" x2="1535.8633" y1="975.7461" y2="975.7461"/><line style="stroke:#000000;stroke-width:1.0;" x1="1130.9571" x2="1130.9571" y1="901.2617" y2="975.7461"/><line style="stroke:#000000;stroke-width:1.0;" x1="1294.7256" x2="1294.7256" y1="901.2617" y2="975.7461"/><line style="stroke:#000000;stroke-width:1.0;" x1="1535.8633" x2="1535.8633" y1="901.2617" y2="975.7461"/><text fill="#000000" font-family="Segoe UI" font-size="14" lengthAdjust="spacing" textLength="3.835" x="1130.9571" y="992.8535">&#160;</text><text fill="#000000" font-family="Segoe UI" font-size="14" lengthAdjust="spacing" textLength="417.9902" x="1130.9571" y="1011.4746">Tous les secrets sont inject&#233;s en variables d'environnement Render ;</text><text fill="#000000" font-family="Segoe UI" font-size="14" lengthAdjust="spacing" textLength="275.6045" x="1130.9571" y="1030.0957">aucun fichier .env n'est pr&#233;sent dans l'image.</text><text fill="#000000" font-family="Segoe UI" font-size="14" lengthAdjust="spacing" textLength="412.46" x="1130.9571" y="1048.7168">docker-compose.yml d&#233;crit le d&#233;veloppement local uniquement &#8212;</text><text fill="#000000" font-family="Segoe UI" font-size="14" lengthAdjust="spacing" textLength="245.998" x="1130.9571" y="1067.3379">Render ne consomme que le Dockerfile.</text><!--SRC=[tLXDRnit4BthLqpLWsqrwm_9NqbZ0x8iDK8SMv6S5aLL6FGk9R5UaLkIAzkj0_JKSr6qznxZUu7Ugt-INz97xafHBJazgu43Uxd3uGpvvitZVc87VCWfYPcG1IjipEbOiBvcGun6-1dV9x4Ii96Mtl_q6xKQTJhXVM5YPeMIrE5w949Eg-tg5sk5WhaICc6OJfSilEfhbSgefcAbwTE6_pTZOGOiKjT2zgd7OiDdtaIynzBODfIqfmo153kyhpYzQHON6tN43vosoZClyuMrv9gsPyQhMglhFA2Twkxktix3bn_yRSsyaYhYXYUqCsklcRpA1n-Oqey5eYEb8wxpnSgrdSP-tOq-t9TwjR7LsCSRjt8-jhLRtYpN2czdt8QnIgDvlzMdkzlbwYA_MAvHh_odtuXPTidCef3hUySxHmj3tcsKwxN_TCsq5JqMsddNUzNz_QUx2wFEKBBOTM65tl_-otBz86Ow5u3Xbg-VH1dBSPW21RMKwNXu5ripQHJf-VE8EnOuF2Hcg7RIh9-U-qEV8g1OJP9OX1bdz3JEDk0owigcj5p3mfEDvSOIU8HM9Hk9FhCyrMjTsGbPp3Hjq5d2PRNLzFkuOVneqItOQ9-TdYyxFCe-hJPs1G_F24HiU1eJiWpnw_kKWrXIG_p6yR5LqYmnUl8iNS9VySj93t4uuZSyJ3r8k1m9uCGrdWnMxVhfSRqDM05NcPiQOCGbG4B7AhpYkYkJMpl0tChwrdPmgTJLjTB3mCHYI7__XTBJblOtDpVTGY7cekTndJa_Fgkzd3YVXMsfD6bm3MOim5SgTMMnsCC3ImJfLD8GRjQJssAnAmyEgArIm9WE3heo731xeRDd3rdCs1XjRSGVscTNQjPVP8DXxovVFNDOWyD9ECYdpVhvKrT-oKEhT0V_qOgpigJN4HgKNVCbKcsrvbDpATM7bppoIsVc6vV3yevBSWIFs5f3eURf3HszAkzq9RyPt-DynlTe6z8ua2PQ8Jm3PAxMMczGhImDiIaiINXCUdnlE4jz1Cx1V0YmsuXKcBfZDXjktL3f1DvUCNq5TI0f5YCzNMz535aVwPfROyVlCedI4-401MG8KcKmlX-EtsbUpC-qWmNVBZipLFpn60kC8taQ-QCMsDuXawm_lb_AvAQoevZXZcfEtxZAz5a1ayx2PQtpjlBwk5sTQokXYcFiXo-bKccAf61QOoDk0Z5qfH-0El7BOIm8kY0WYTMVKMLphqnHnX2XCaAcfYjT4U1T1dsy6Af8z5pxScJJF6vqfO236qhORQnO15EZKkray1M_1Ub4A8HUQXoFjTiD2iT_kfeng5OuyE2idPsS_3-0sKFcKXZZoQ9P9UkASIdpoYHsqSkCPjQDe4uaY_t9JVNDMQj-Mcq-06AfP64TS4Ud4UuqGIM0FEbp1xVfe26FEd3b17N0IQoi6wTAcSP_E8gJVUWWGCVZfFxgoC4a3wsc1bppnqEhdRsej-jpeMdkhYh1Q7jzCt2jo_EiLiP0X8LefUYSMpkG6Z8Ig3fqefz_9QjmiIbcZHU5zt8cYggq0wqI4JuU22hrHVkirQpDnHB6B8ruO9IKt0RRmQuB1Ymcn_SwauUVeGvJQI-iki9k-H1EJbujSR7KSCSMqXzog8R3LEP2U2dpyMARWk3GQGeGNwdquloyrO4yRzSxvwKIFTlUhdJb-Ka7UbuZRn0VheEvieM8EMjtYCMnkhv05-jZNmw-APQAtnOApf_pwwWHCc6HwzrA1RwpJd01DNRnilvrLwO9i6STJqCcwzkBH0dq05e5zQvDlQAGw16lFk2igYTEfzCoy3y-BQkukMa0x4TNczR7TAQVkhv-w8KI9Zv_dXeKa-iqGIwofYPEsNWJpLdaRFvD7CjPA6ZPW0W14mCBphY3-4NJXFPJzZRX_bdqPTQ67KtSEQEFN1dkgFRetGdOy71SctfPg3hk4CASwahGtWJalxHF9Wfi9fOvChoRzCIGFo57WYbIuXdLfyQvldEo-Dm56ACr60xL0VI282q9-HtMXOf6RZHYMh1BPnEjvAdAxCDSVf_wt56jbz-v9gPrs95SSVVgn8jn6CygwNNCYFpTAG0p9ShmzTjXxBxwXLfOf-_nvuZ72dBUhnGhN4W938PDdNmJX8yy0Ea8JXhbFXwwNNTV4xttdeYn5eooGoxy0m00]--></g></svg>